<mxfile host="65bd71144e">
    <diagram id="3hswl4JPcSf4KPkya-dj" name="Page-1">
        <mxGraphModel dx="2332" dy="1937" grid="1" gridSize="10" guides="1" tooltips="1" connect="1" arrows="1" fold="1" page="1" pageScale="1" pageWidth="827" pageHeight="1169" math="0" shadow="0">
            <root>
                <mxCell id="0"/>
                <mxCell id="1" parent="0"/>
                <mxCell id="2" value="&lt;diagram&gt;&#13;&#10;  &lt;mxGraphModel dx=&quot;1134&quot; dy=&quot;495&quot; grid=&quot;1&quot; gridSize=&quot;10&quot; guides=&quot;1&quot; tooltips=&quot;1&quot; connect=&quot;1&quot; arrows=&quot;1&quot; fold=&quot;1&quot; page=&quot;1&quot; pageScale=&quot;1&quot; pageWidth=&quot;827&quot; pageHeight=&quot;1169&quot; math=&quot;0&quot; shadow=&quot;0&quot;&gt;&#13;&#10;    &lt;root&gt;&#13;&#10;      &lt;mxCell id=&quot;0&quot;/&gt;&#13;&#10;      &lt;mxCell id=&quot;1&quot; parent=&quot;0&quot;/&gt;&#13;&#10;      &lt;mxCell id=&quot;2&quot; value=&quot;Utilisateur&quot; style=&quot;rounded=0;whiteSpace=wrap;html=1;fillColor=#FFFFCC;&quot; vertex=&quot;1&quot; parent=&quot;1&quot;&gt;&#13;&#10;        &lt;mxGeometry x=&quot;60&quot; y=&quot;20&quot; width=&quot;120&quot; height=&quot;80&quot; as=&quot;geometry&quot;/&gt;&#13;&#10;      &lt;/mxCell&gt;&#13;&#10;      &lt;mxCell id=&quot;3&quot; value=&quot;id_utilisateur : N&quot; style=&quot;text;strokeColor=none;fillColor=none;align=left;&quot; vertex=&quot;1&quot; parent=&quot;2&quot;&gt;&#13;&#10;        &lt;mxGeometry x=&quot;10&quot; y=&quot;10&quot; width=&quot;100&quot; height=&quot;20&quot; as=&quot;geometry&quot;/&gt;&#13;&#10;      &lt;/mxCell&gt;&#13;&#10;      &lt;mxCell id=&quot;4&quot; value=&quot;nom : A&quot; style=&quot;text;strokeColor=none;fillColor=none;align=left;&quot; vertex=&quot;1&quot; parent=&quot;2&quot;&gt;&#13;&#10;        &lt;mxGeometry x=&quot;10&quot; y=&quot;30&quot; width=&quot;100&quot; height=&quot;20&quot; as=&quot;geometry&quot;/&gt;&#13;&#10;      &lt;/mxCell&gt;&#13;&#10;      &lt;mxCell id=&quot;5&quot; value=&quot;prénom : A&quot; style=&quot;text;strokeColor=none;fillColor=none;align=left;&quot; vertex=&quot;1&quot; parent=&quot;2&quot;&gt;&#13;&#10;        &lt;mxGeometry x=&quot;10&quot; y=&quot;50&quot; width=&quot;100&quot; height=&quot;20&quot; as=&quot;geometry&quot;/&gt;&#13;&#10;      &lt;/mxCell&gt;&#13;&#10;      &lt;mxCell id=&quot;6&quot; value=&quot;email : A&quot; style=&quot;text;strokeColor=none;fillColor=none;align=left;&quot; vertex=&quot;1&quot; parent=&quot;2&quot;&gt;&#13;&#10;        &lt;mxGeometry x=&quot;10&quot; y=&quot;70&quot; width=&quot;100&quot; height=&quot;20&quot; as=&quot;geometry&quot;/&gt;&#13;&#10;      &lt;/mxCell&gt;&#13;&#10;      &lt;mxCell id=&quot;7&quot; value=&quot;mot_de_passe : A&quot; style=&quot;text;strokeColor=none;fillColor=none;align=left;&quot; vertex=&quot;1&quot; parent=&quot;2&quot;&gt;&#13;&#10;        &lt;mxGeometry x=&quot;10&quot; y=&quot;90&quot; width=&quot;100&quot; height=&quot;20&quot; as=&quot;geometry&quot;/&gt;&#13;&#10;      &lt;/mxCell&gt;&#13;&#10;      &lt;mxCell id=&quot;8&quot; value=&quot;Statistique&quot; style=&quot;rounded=0;whiteSpace=wrap;html=1;fillColor=#FFFFCC;&quot; vertex=&quot;1&quot; parent=&quot;1&quot;&gt;&#13;&#10;        &lt;mxGeometry x=&quot;260&quot; y=&quot;20&quot; width=&quot;120&quot; height=&quot;80&quot; as=&quot;geometry&quot;/&gt;&#13;&#10;      &lt;/mxCell&gt;&#13;&#10;      &lt;mxCell id=&quot;9&quot; value=&quot;id_statistique : N&quot; style=&quot;text;strokeColor=none;fillColor=none;align=left;&quot; vertex=&quot;1&quot; parent=&quot;8&quot;&gt;&#13;&#10;        &lt;mxGeometry x=&quot;10&quot; y=&quot;10&quot; width=&quot;100&quot; height=&quot;20&quot; as=&quot;geometry&quot;/&gt;&#13;&#10;      &lt;/mxCell&gt;&#13;&#10;      &lt;mxCell id=&quot;10&quot; value=&quot;titre : A&quot; style=&quot;text;strokeColor=none;fillColor=none;align=left;&quot; vertex=&quot;1&quot; parent=&quot;8&quot;&gt;&#13;&#10;        &lt;mxGeometry x=&quot;10&quot; y=&quot;30&quot; width=&quot;100&quot; height=&quot;20&quot; as=&quot;geometry&quot;/&gt;&#13;&#10;      &lt;/mxCell&gt;&#13;&#10;      &lt;mxCell id=&quot;11&quot; value=&quot;description : A&quot; style=&quot;text;strokeColor=none;fillColor=none;align=left;&quot; vertex=&quot;1&quot; parent=&quot;8&quot;&gt;&#13;&#10;        &lt;mxGeometry x=&quot;10&quot; y=&quot;50&quot; width=&quot;100&quot; height=&quot;20&quot; as=&quot;geometry&quot;/&gt;&#13;&#10;      &lt;/mxCell&gt;&#13;&#10;      &lt;mxCell id=&quot;12&quot; value=&quot;date_création : Date&quot; style=&quot;text;strokeColor=none;fillColor=none;align=left;&quot; vertex=&quot;1&quot; parent=&quot;8&quot;&gt;&#13;&#10;        &lt;mxGeometry x=&quot;10&quot; y=&quot;70&quot; width=&quot;100&quot; height=&quot;20&quot; as=&quot;geometry&quot;/&gt;&#13;&#10;      &lt;/mxCell&gt;&#13;&#10;      &lt;mxCell id=&quot;13&quot; value=&quot;Rapport&quot; style=&quot;rounded=0;whiteSpace=wrap;html=1;fillColor=#FFFFCC;&quot; vertex=&quot;1&quot; parent=&quot;1&quot;&gt;&#13;&#10;        &lt;mxGeometry x=&quot;460&quot; y=&quot;20&quot; width=&quot;120&quot; height=&quot;80&quot; as=&quot;geometry&quot;/&gt;&#13;&#10;      &lt;/mxCell&gt;&#13;&#10;      &lt;mxCell id=&quot;14&quot; value=&quot;id_rapport : N&quot; style=&quot;text;strokeColor=none;fillColor=none;align=left;&quot; vertex=&quot;1&quot; parent=&quot;13&quot;&gt;&#13;&#10;        &lt;mxGeometry x=&quot;10&quot; y=&quot;10&quot; width=&quot;100&quot; height=&quot;20&quot; as=&quot;geometry&quot;/&gt;&#13;&#10;      &lt;/mxCell&gt;&#13;&#10;      &lt;mxCell id=&quot;15&quot; value=&quot;titre : A&quot; style=&quot;text;strokeColor=none;fillColor=none;align=left;&quot; vertex=&quot;1&quot; parent=&quot;13&quot;&gt;&#13;&#10;        &lt;mxGeometry x=&quot;10&quot; y=&quot;30&quot; width=&quot;100&quot; height=&quot;20&quot; as=&quot;geometry&quot;/&gt;&#13;&#10;      &lt;/mxCell&gt;&#13;&#10;      &lt;mxCell id=&quot;16&quot; value=&quot;date_création : Date&quot; style=&quot;text;strokeColor=none;fillColor=none;align=left;&quot; vertex=&quot;1&quot; parent=&quot;13&quot;&gt;&#13;&#10;        &lt;mxGeometry x=&quot;10&quot; y=&quot;50&quot; width=&quot;100&quot; height=&quot;20&quot; as=&quot;geometry&quot;/&gt;&#13;&#10;      &lt;/mxCell&gt;&#13;&#10;      &lt;mxCell id=&quot;17&quot; value=&quot;format : A&quot; style=&quot;text;strokeColor=none;fillColor=none;align=left;&quot; vertex=&quot;1&quot; parent=&quot;13&quot;&gt;&#13;&#10;        &lt;mxGeometry x=&quot;10&quot; y=&quot;70&quot; width=&quot;100&quot; height=&quot;20&quot; as=&quot;geometry&quot;/&gt;&#13;&#10;      &lt;/mxCell&gt;&#13;&#10;      &lt;mxCell id=&quot;18&quot; value=&quot;id_utilisateur : N&quot; style=&quot;text;strokeColor=none;fillColor=none;align=left;&quot; vertex=&quot;1&quot; parent=&quot;13&quot;&gt;&#13;&#10;        &lt;mxGeometry x=&quot;10&quot; y=&quot;90&quot; width=&quot;100&quot; height=&quot;20&quot; as=&quot;geometry&quot;/&gt;&#13;&#10;      &lt;/mxCell&gt;&#13;&#10;      &lt;mxCell id=&quot;19&quot; value=&quot;Donnée&quot; style=&quot;rounded=0;whiteSpace=wrap;html=1;fillColor=#FFFFCC;&quot; vertex=&quot;1&quot; parent=&quot;1&quot;&gt;&#13;&#10;        &lt;mxGeometry x=&quot;660&quot; y=&quot;20&quot; width=&quot;120&quot; height=&quot;80&quot; as=&quot;geometry&quot;/&gt;&#13;&#10;      &lt;/mxCell&gt;&#13;&#10;      &lt;mxCell id=&quot;20&quot; value=&quot;id_donnée : N&quot; style=&quot;text;strokeColor=none;fillColor=none;align=left;&quot; vertex=&quot;1&quot; parent=&quot;19&quot;&gt;&#13;&#10;        &lt;mxGeometry x=&quot;10&quot; y=&quot;10&quot; width=&quot;100&quot; height=&quot;20&quot; as=&quot;geometry&quot;/&gt;&#13;&#10;      &lt;/mxCell&gt;&#13;&#10;      &lt;mxCell id=&quot;21&quot; value=&quot;source : A&quot; style=&quot;text;strokeColor=none;fillColor=none;align=left;&quot; vertex=&quot;1&quot; parent=&quot;19&quot;&gt;&#13;&#10;        &lt;mxGeometry x=&quot;10&quot; y=&quot;30&quot; width=&quot;100&quot; height=&quot;20&quot; as=&quot;geometry&quot;/&gt;&#13;&#10;      &lt;/mxCell&gt;&#13;&#10;      &lt;mxCell id=&quot;22&quot; value=&quot;type : A&quot; style=&quot;text;strokeColor=none;fillColor=none;align=left;&quot; vertex=&quot;1&quot; parent=&quot;19&quot;&gt;&#13;&#10;        &lt;mxGeometry x=&quot;10&quot; y=&quot;50&quot; width=&quot;100&quot; height=&quot;20&quot; as=&quot;geometry&quot;/&gt;&#13;&#10;      &lt;/mxCell&gt;&#13;&#10;      &lt;mxCell id=&quot;23&quot; value=&quot;contenu : A&quot; style=&quot;text;strokeColor=none;fillColor=none;align=left;&quot; vertex=&quot;1&quot; parent=&quot;19&quot;&gt;&#13;&#10;        &lt;mxGeometry x=&quot;10&quot; y=&quot;70&quot; width=&quot;100&quot; height=&quot;20&quot; as=&quot;geometry&quot;/&gt;&#13;&#10;      &lt;/mxCell&gt;&#13;&#10;      &lt;mxCell id=&quot;24&quot; value=&quot;crée&quot; style=&quot;edgeStyle=orthogonalEdgeStyle;rounded=0;orthogonalLoop=1;&quot; edge=&quot;1&quot; parent=&quot;1&quot; source=&quot;2&quot; target=&quot;13&quot;&gt;&#13;&#10;        &lt;mxGeometry relative=&quot;1&quot; as=&quot;geometry&quot;/&gt;&#13;&#10;      &lt;/mxCell&gt;&#13;&#10;      &lt;mxCell id=&quot;25&quot; value=&quot;utilise&quot; style=&quot;edgeStyle=orthogonalEdgeStyle;rounded=0;orthogonalLoop=1;&quot; edge=&quot;1&quot; parent=&quot;1&quot; source=&quot;13&quot; target=&quot;8&quot;&gt;&#13;&#10;        &lt;mxGeometry relative=&quot;1&quot; as=&quot;geometry&quot;/&gt;&#13;&#10;      &lt;/mxCell&gt;&#13;&#10;      &lt;mxCell id=&quot;26&quot; value=&quot;basée sur&quot; style=&quot;edgeStyle=orthogonalEdgeStyle;rounded=0;orthogonalLoop=1;&quot; edge=&quot;1&quot; parent=&quot;1&quot; source=&quot;8&quot; target=&quot;19&quot;&gt;&#13;&#10;        &lt;mxGeometry relative=&quot;1&quot; as=&quot;geometry&quot;/&gt;&#13;&#10;      &lt;/mxCell&gt;&#13;&#10;    &lt;/root&gt;&#13;&#10;  &lt;/mxGraphModel&gt;&#13;&#10;&lt;/diagram&gt;" style="text;whiteSpace=wrap;html=1;" parent="1" vertex="1">
                    <mxGeometry width="30" height="1200" as="geometry"/>
                </mxCell>
                <mxCell id="3" value="&lt;diagram&gt;&#13;&#10;  &lt;mxGraphModel dx=&quot;1134&quot; dy=&quot;495&quot; grid=&quot;1&quot; gridSize=&quot;10&quot; guides=&quot;1&quot; tooltips=&quot;1&quot; connect=&quot;1&quot; arrows=&quot;1&quot; fold=&quot;1&quot; page=&quot;1&quot; pageScale=&quot;1&quot; pageWidth=&quot;827&quot; pageHeight=&quot;1169&quot; math=&quot;0&quot; shadow=&quot;0&quot;&gt;&#13;&#10;    &lt;root&gt;&#13;&#10;      &lt;mxCell id=&quot;0&quot;/&gt;&#13;&#10;      &lt;mxCell id=&quot;1&quot; parent=&quot;0&quot;/&gt;&#13;&#10;      &lt;mxCell id=&quot;2&quot; value=&quot;Utilisateur&quot; style=&quot;rounded=0;whiteSpace=wrap;html=1;fillColor=#FFFFCC;&quot; vertex=&quot;1&quot; parent=&quot;1&quot;&gt;&#13;&#10;        &lt;mxGeometry x=&quot;60&quot; y=&quot;20&quot; width=&quot;120&quot; height=&quot;80&quot; as=&quot;geometry&quot;/&gt;&#13;&#10;      &lt;/mxCell&gt;&#13;&#10;      &lt;mxCell id=&quot;3&quot; value=&quot;id_utilisateur : N&quot; style=&quot;text;strokeColor=none;fillColor=none;align=left;&quot; vertex=&quot;1&quot; parent=&quot;2&quot;&gt;&#13;&#10;        &lt;mxGeometry x=&quot;10&quot; y=&quot;10&quot; width=&quot;100&quot; height=&quot;20&quot; as=&quot;geometry&quot;/&gt;&#13;&#10;      &lt;/mxCell&gt;&#13;&#10;      &lt;mxCell id=&quot;4&quot; value=&quot;nom : A&quot; style=&quot;text;strokeColor=none;fillColor=none;align=left;&quot; vertex=&quot;1&quot; parent=&quot;2&quot;&gt;&#13;&#10;        &lt;mxGeometry x=&quot;10&quot; y=&quot;30&quot; width=&quot;100&quot; height=&quot;20&quot; as=&quot;geometry&quot;/&gt;&#13;&#10;      &lt;/mxCell&gt;&#13;&#10;      &lt;mxCell id=&quot;5&quot; value=&quot;prénom : A&quot; style=&quot;text;strokeColor=none;fillColor=none;align=left;&quot; vertex=&quot;1&quot; parent=&quot;2&quot;&gt;&#13;&#10;        &lt;mxGeometry x=&quot;10&quot; y=&quot;50&quot; width=&quot;100&quot; height=&quot;20&quot; as=&quot;geometry&quot;/&gt;&#13;&#10;      &lt;/mxCell&gt;&#13;&#10;      &lt;mxCell id=&quot;6&quot; value=&quot;email : A&quot; style=&quot;text;strokeColor=none;fillColor=none;align=left;&quot; vertex=&quot;1&quot; parent=&quot;2&quot;&gt;&#13;&#10;        &lt;mxGeometry x=&quot;10&quot; y=&quot;70&quot; width=&quot;100&quot; height=&quot;20&quot; as=&quot;geometry&quot;/&gt;&#13;&#10;      &lt;/mxCell&gt;&#13;&#10;      &lt;mxCell id=&quot;7&quot; value=&quot;mot_de_passe : A&quot; style=&quot;text;strokeColor=none;fillColor=none;align=left;&quot; vertex=&quot;1&quot; parent=&quot;2&quot;&gt;&#13;&#10;        &lt;mxGeometry x=&quot;10&quot; y=&quot;90&quot; width=&quot;100&quot; height=&quot;20&quot; as=&quot;geometry&quot;/&gt;&#13;&#10;      &lt;/mxCell&gt;&#13;&#10;      &lt;mxCell id=&quot;8&quot; value=&quot;Statistique&quot; style=&quot;rounded=0;whiteSpace=wrap;html=1;fillColor=#FFFFCC;&quot; vertex=&quot;1&quot; parent=&quot;1&quot;&gt;&#13;&#10;        &lt;mxGeometry x=&quot;260&quot; y=&quot;20&quot; width=&quot;120&quot; height=&quot;80&quot; as=&quot;geometry&quot;/&gt;&#13;&#10;      &lt;/mxCell&gt;&#13;&#10;      &lt;mxCell id=&quot;9&quot; value=&quot;id_statistique : N&quot; style=&quot;text;strokeColor=none;fillColor=none;align=left;&quot; vertex=&quot;1&quot; parent=&quot;8&quot;&gt;&#13;&#10;        &lt;mxGeometry x=&quot;10&quot; y=&quot;10&quot; width=&quot;100&quot; height=&quot;20&quot; as=&quot;geometry&quot;/&gt;&#13;&#10;      &lt;/mxCell&gt;&#13;&#10;      &lt;mxCell id=&quot;10&quot; value=&quot;titre : A&quot; style=&quot;text;strokeColor=none;fillColor=none;align=left;&quot; vertex=&quot;1&quot; parent=&quot;8&quot;&gt;&#13;&#10;        &lt;mxGeometry x=&quot;10&quot; y=&quot;30&quot; width=&quot;100&quot; height=&quot;20&quot; as=&quot;geometry&quot;/&gt;&#13;&#10;      &lt;/mxCell&gt;&#13;&#10;      &lt;mxCell id=&quot;11&quot; value=&quot;description : A&quot; style=&quot;text;strokeColor=none;fillColor=none;align=left;&quot; vertex=&quot;1&quot; parent=&quot;8&quot;&gt;&#13;&#10;        &lt;mxGeometry x=&quot;10&quot; y=&quot;50&quot; width=&quot;100&quot; height=&quot;20&quot; as=&quot;geometry&quot;/&gt;&#13;&#10;      &lt;/mxCell&gt;&#13;&#10;      &lt;mxCell id=&quot;12&quot; value=&quot;date_création : Date&quot; style=&quot;text;strokeColor=none;fillColor=none;align=left;&quot; vertex=&quot;1&quot; parent=&quot;8&quot;&gt;&#13;&#10;        &lt;mxGeometry x=&quot;10&quot; y=&quot;70&quot; width=&quot;100&quot; height=&quot;20&quot; as=&quot;geometry&quot;/&gt;&#13;&#10;      &lt;/mxCell&gt;&#13;&#10;      &lt;mxCell id=&quot;13&quot; value=&quot;Rapport&quot; style=&quot;rounded=0;whiteSpace=wrap;html=1;fillColor=#FFFFCC;&quot; vertex=&quot;1&quot; parent=&quot;1&quot;&gt;&#13;&#10;        &lt;mxGeometry x=&quot;460&quot; y=&quot;20&quot; width=&quot;120&quot; height=&quot;80&quot; as=&quot;geometry&quot;/&gt;&#13;&#10;      &lt;/mxCell&gt;&#13;&#10;      &lt;mxCell id=&quot;14&quot; value=&quot;id_rapport : N&quot; style=&quot;text;strokeColor=none;fillColor=none;align=left;&quot; vertex=&quot;1&quot; parent=&quot;13&quot;&gt;&#13;&#10;        &lt;mxGeometry x=&quot;10&quot; y=&quot;10&quot; width=&quot;100&quot; height=&quot;20&quot; as=&quot;geometry&quot;/&gt;&#13;&#10;      &lt;/mxCell&gt;&#13;&#10;      &lt;mxCell id=&quot;15&quot; value=&quot;titre : A&quot; style=&quot;text;strokeColor=none;fillColor=none;align=left;&quot; vertex=&quot;1&quot; parent=&quot;13&quot;&gt;&#13;&#10;        &lt;mxGeometry x=&quot;10&quot; y=&quot;30&quot; width=&quot;100&quot; height=&quot;20&quot; as=&quot;geometry&quot;/&gt;&#13;&#10;      &lt;/mxCell&gt;&#13;&#10;      &lt;mxCell id=&quot;16&quot; value=&quot;date_création : Date&quot; style=&quot;text;strokeColor=none;fillColor=none;align=left;&quot; vertex=&quot;1&quot; parent=&quot;13&quot;&gt;&#13;&#10;        &lt;mxGeometry x=&quot;10&quot; y=&quot;50&quot; width=&quot;100&quot; height=&quot;20&quot; as=&quot;geometry&quot;/&gt;&#13;&#10;      &lt;/mxCell&gt;&#13;&#10;      &lt;mxCell id=&quot;17&quot; value=&quot;format : A&quot; style=&quot;text;strokeColor=none;fillColor=none;align=left;&quot; vertex=&quot;1&quot; parent=&quot;13&quot;&gt;&#13;&#10;        &lt;mxGeometry x=&quot;10&quot; y=&quot;70&quot; width=&quot;100&quot; height=&quot;20&quot; as=&quot;geometry&quot;/&gt;&#13;&#10;      &lt;/mxCell&gt;&#13;&#10;      &lt;mxCell id=&quot;18&quot; value=&quot;id_utilisateur : N&quot; style=&quot;text;strokeColor=none;fillColor=none;align=left;&quot; vertex=&quot;1&quot; parent=&quot;13&quot;&gt;&#13;&#10;        &lt;mxGeometry x=&quot;10&quot; y=&quot;90&quot; width=&quot;100&quot; height=&quot;20&quot; as=&quot;geometry&quot;/&gt;&#13;&#10;      &lt;/mxCell&gt;&#13;&#10;      &lt;mxCell id=&quot;19&quot; value=&quot;Donnée&quot; style=&quot;rounded=0;whiteSpace=wrap;html=1;fillColor=#FFFFCC;&quot; vertex=&quot;1&quot; parent=&quot;1&quot;&gt;&#13;&#10;        &lt;mxGeometry x=&quot;660&quot; y=&quot;20&quot; width=&quot;120&quot; height=&quot;80&quot; as=&quot;geometry&quot;/&gt;&#13;&#10;      &lt;/mxCell&gt;&#13;&#10;      &lt;mxCell id=&quot;20&quot; value=&quot;id_donnée : N&quot; style=&quot;text;strokeColor=none;fillColor=none;align=left;&quot; vertex=&quot;1&quot; parent=&quot;19&quot;&gt;&#13;&#10;        &lt;mxGeometry x=&quot;10&quot; y=&quot;10&quot; width=&quot;100&quot; height=&quot;20&quot; as=&quot;geometry&quot;/&gt;&#13;&#10;      &lt;/mxCell&gt;&#13;&#10;      &lt;mxCell id=&quot;21&quot; value=&quot;source : A&quot; style=&quot;text;strokeColor=none;fillColor=none;align=left;&quot; vertex=&quot;1&quot; parent=&quot;19&quot;&gt;&#13;&#10;        &lt;mxGeometry x=&quot;10&quot; y=&quot;30&quot; width=&quot;100&quot; height=&quot;20&quot; as=&quot;geometry&quot;/&gt;&#13;&#10;      &lt;/mxCell&gt;&#13;&#10;      &lt;mxCell id=&quot;22&quot; value=&quot;type : A&quot; style=&quot;text;strokeColor=none;fillColor=none;align=left;&quot; vertex=&quot;1&quot; parent=&quot;19&quot;&gt;&#13;&#10;        &lt;mxGeometry x=&quot;10&quot; y=&quot;50&quot; width=&quot;100&quot; height=&quot;20&quot; as=&quot;geometry&quot;/&gt;&#13;&#10;      &lt;/mxCell&gt;&#13;&#10;      &lt;mxCell id=&quot;23&quot; value=&quot;contenu : A&quot; style=&quot;text;strokeColor=none;fillColor=none;align=left;&quot; vertex=&quot;1&quot; parent=&quot;19&quot;&gt;&#13;&#10;        &lt;mxGeometry x=&quot;10&quot; y=&quot;70&quot; width=&quot;100&quot; height=&quot;20&quot; as=&quot;geometry&quot;/&gt;&#13;&#10;      &lt;/mxCell&gt;&#13;&#10;      &lt;mxCell id=&quot;24&quot; value=&quot;crée&quot; style=&quot;edgeStyle=orthogonalEdgeStyle;rounded=0;orthogonalLoop=1;&quot; edge=&quot;1&quot; parent=&quot;1&quot; source=&quot;2&quot; target=&quot;13&quot;&gt;&#13;&#10;        &lt;mxGeometry relative=&quot;1&quot; as=&quot;geometry&quot;/&gt;&#13;&#10;      &lt;/mxCell&gt;&#13;&#10;      &lt;mxCell id=&quot;25&quot; value=&quot;utilise&quot; style=&quot;edgeStyle=orthogonalEdgeStyle;rounded=0;orthogonalLoop=1;&quot; edge=&quot;1&quot; parent=&quot;1&quot; source=&quot;13&quot; target=&quot;8&quot;&gt;&#13;&#10;        &lt;mxGeometry relative=&quot;1&quot; as=&quot;geometry&quot;/&gt;&#13;&#10;      &lt;/mxCell&gt;&#13;&#10;      &lt;mxCell id=&quot;26&quot; value=&quot;basée sur&quot; style=&quot;edgeStyle=orthogonalEdgeStyle;rounded=0;orthogonalLoop=1;&quot; edge=&quot;1&quot; parent=&quot;1&quot; source=&quot;8&quot; target=&quot;19&quot;&gt;&#13;&#10;        &lt;mxGeometry relative=&quot;1&quot; as=&quot;geometry&quot;/&gt;&#13;&#10;      &lt;/mxCell&gt;&#13;&#10;    &lt;/root&gt;&#13;&#10;  &lt;/mxGraphModel&gt;&#13;&#10;&lt;/diagram&gt;" style="text;whiteSpace=wrap;html=1;" parent="1" vertex="1">
                    <mxGeometry width="30" height="1200" as="geometry"/>
                </mxCell>
                <mxCell id="4" value="" style="shape=internalStorage;whiteSpace=wrap;html=1;backgroundOutline=1;" parent="1" vertex="1">
                    <mxGeometry x="-130" y="140" width="150" height="140" as="geometry"/>
                </mxCell>
                <mxCell id="5" value="Statistique" style="text;html=1;strokeColor=none;fillColor=none;align=center;verticalAlign=middle;whiteSpace=wrap;rounded=0;" parent="1" vertex="1">
                    <mxGeometry x="-90" y="135" width="60" height="30" as="geometry"/>
                </mxCell>
                <mxCell id="6" value="niveau_education&lt;br&gt;region&lt;br&gt;annee&lt;br&gt;valeur&lt;br&gt;filiere" style="text;html=1;strokeColor=none;fillColor=none;align=center;verticalAlign=middle;whiteSpace=wrap;rounded=0;" parent="1" vertex="1">
                    <mxGeometry x="-85" y="210" width="60" height="30" as="geometry"/>
                </mxCell>
                <mxCell id="11" value="" style="shape=internalStorage;whiteSpace=wrap;html=1;backgroundOutline=1;" parent="1" vertex="1">
                    <mxGeometry x="320" y="30" width="140" height="130" as="geometry"/>
                </mxCell>
                <mxCell id="12" value="Rapport" style="text;html=1;strokeColor=none;fillColor=none;align=center;verticalAlign=middle;whiteSpace=wrap;rounded=0;" parent="1" vertex="1">
                    <mxGeometry x="360" y="25" width="60" height="30" as="geometry"/>
                </mxCell>
                <mxCell id="13" value="&lt;br&gt;titre&lt;br&gt;data_creation&lt;br&gt;format&lt;br&gt;chemin_fichier" style="text;html=1;strokeColor=none;fillColor=none;align=center;verticalAlign=middle;whiteSpace=wrap;rounded=0;" parent="1" vertex="1">
                    <mxGeometry x="370" y="95" width="60" height="20" as="geometry"/>
                </mxCell>
                <mxCell id="15" value="" style="shape=internalStorage;whiteSpace=wrap;html=1;backgroundOutline=1;" parent="1" vertex="1">
                    <mxGeometry x="844" y="125" width="146" height="140" as="geometry"/>
                </mxCell>
                <mxCell id="16" value="Fichier" style="text;html=1;strokeColor=none;fillColor=none;align=center;verticalAlign=middle;whiteSpace=wrap;rounded=0;" parent="1" vertex="1">
                    <mxGeometry x="887" y="121" width="60" height="30" as="geometry"/>
                </mxCell>
                <mxCell id="17" value="&lt;br&gt;&lt;br&gt;nom_fichier&lt;br&gt;contenu&lt;br&gt;date_import" style="text;html=1;strokeColor=none;fillColor=none;align=center;verticalAlign=middle;whiteSpace=wrap;rounded=0;" parent="1" vertex="1">
                    <mxGeometry x="894" y="186" width="60" height="20" as="geometry"/>
                </mxCell>
                <mxCell id="18" value="" style="shape=internalStorage;whiteSpace=wrap;html=1;backgroundOutline=1;" parent="1" vertex="1">
                    <mxGeometry x="340" y="318" width="120" height="130" as="geometry"/>
                </mxCell>
                <mxCell id="19" value="filtre" style="text;html=1;strokeColor=none;fillColor=none;align=center;verticalAlign=middle;whiteSpace=wrap;rounded=0;" parent="1" vertex="1">
                    <mxGeometry x="370" y="314" width="60" height="30" as="geometry"/>
                </mxCell>
                <mxCell id="20" value="type&lt;br&gt;valeur" style="text;html=1;strokeColor=none;fillColor=none;align=center;verticalAlign=middle;whiteSpace=wrap;rounded=0;" parent="1" vertex="1">
                    <mxGeometry x="378" y="383" width="60" height="20" as="geometry"/>
                </mxCell>
                <mxCell id="34" value="" style="line;strokeWidth=2;html=1;" vertex="1" parent="1">
                    <mxGeometry x="-130" y="180" width="150" height="10" as="geometry"/>
                </mxCell>
                <mxCell id="37" value="Modèle conceptuel de données (mcd)" style="text;strokeColor=none;fillColor=none;html=1;fontSize=24;fontStyle=1;verticalAlign=middle;align=center;" vertex="1" parent="1">
                    <mxGeometry x="104" y="-50" width="620" height="40" as="geometry"/>
                </mxCell>
                <mxCell id="38" value="id_statistique" style="text;html=1;strokeColor=none;fillColor=none;align=center;verticalAlign=middle;whiteSpace=wrap;rounded=0;" vertex="1" parent="1">
                    <mxGeometry x="-80" y="160" width="60" height="30" as="geometry"/>
                </mxCell>
                <mxCell id="39" value="id" style="text;html=1;strokeColor=none;fillColor=none;align=center;verticalAlign=middle;whiteSpace=wrap;rounded=0;" vertex="1" parent="1">
                    <mxGeometry x="-150" y="160" width="60" height="30" as="geometry"/>
                </mxCell>
                <mxCell id="40" value="" style="line;strokeWidth=2;html=1;" vertex="1" parent="1">
                    <mxGeometry x="340" y="363" width="120" height="10" as="geometry"/>
                </mxCell>
                <mxCell id="41" value="id_filtre" style="text;html=1;strokeColor=none;fillColor=none;align=center;verticalAlign=middle;whiteSpace=wrap;rounded=0;" vertex="1" parent="1">
                    <mxGeometry x="380" y="338" width="60" height="30" as="geometry"/>
                </mxCell>
                <mxCell id="42" value="id" style="text;html=1;strokeColor=none;fillColor=none;align=center;verticalAlign=middle;whiteSpace=wrap;rounded=0;" vertex="1" parent="1">
                    <mxGeometry x="318" y="338" width="60" height="30" as="geometry"/>
                </mxCell>
                <mxCell id="43" value="" style="line;strokeWidth=2;html=1;" vertex="1" parent="1">
                    <mxGeometry x="320" y="70" width="140" height="10" as="geometry"/>
                </mxCell>
                <mxCell id="45" value="id_rapport" style="text;html=1;strokeColor=none;fillColor=none;align=center;verticalAlign=middle;whiteSpace=wrap;rounded=0;" vertex="1" parent="1">
                    <mxGeometry x="364" y="47" width="60" height="30" as="geometry"/>
                </mxCell>
                <mxCell id="46" value="id" style="text;html=1;strokeColor=none;fillColor=none;align=center;verticalAlign=middle;whiteSpace=wrap;rounded=0;" vertex="1" parent="1">
                    <mxGeometry x="300" y="47" width="60" height="30" as="geometry"/>
                </mxCell>
                <mxCell id="48" value="" style="line;strokeWidth=2;html=1;" vertex="1" parent="1">
                    <mxGeometry x="844" y="170" width="150" height="10" as="geometry"/>
                </mxCell>
                <mxCell id="49" value="id_fichier" style="text;html=1;strokeColor=none;fillColor=none;align=center;verticalAlign=middle;whiteSpace=wrap;rounded=0;" vertex="1" parent="1">
                    <mxGeometry x="889" y="145" width="60" height="30" as="geometry"/>
                </mxCell>
                <mxCell id="50" value="id" style="text;html=1;strokeColor=none;fillColor=none;align=center;verticalAlign=middle;whiteSpace=wrap;rounded=0;" vertex="1" parent="1">
                    <mxGeometry x="827" y="145" width="60" height="30" as="geometry"/>
                </mxCell>
                <mxCell id="52" value="" style="ellipse;shape=doubleEllipse;whiteSpace=wrap;html=1;" vertex="1" parent="1">
                    <mxGeometry x="30" y="331" width="100" height="60" as="geometry"/>
                </mxCell>
                <mxCell id="53" value="" style="ellipse;shape=doubleEllipse;whiteSpace=wrap;html=1;" vertex="1" parent="1">
                    <mxGeometry x="600" y="90" width="120" height="50" as="geometry"/>
                </mxCell>
                <mxCell id="54" value="" style="ellipse;shape=doubleEllipse;whiteSpace=wrap;html=1;" vertex="1" parent="1">
                    <mxGeometry x="320" y="194" width="100" height="60" as="geometry"/>
                </mxCell>
                <mxCell id="59" value="" style="endArrow=none;html=1;exitX=1;exitY=0.5;exitDx=0;exitDy=0;" edge="1" parent="1" source="54">
                    <mxGeometry width="50" height="50" relative="1" as="geometry">
                        <mxPoint x="520" y="260" as="sourcePoint"/>
                        <mxPoint x="840" y="220" as="targetPoint"/>
                    </mxGeometry>
                </mxCell>
                <mxCell id="60" value="" style="endArrow=none;html=1;exitX=0;exitY=0.5;exitDx=0;exitDy=0;entryX=1.14;entryY=0.185;entryDx=0;entryDy=0;entryPerimeter=0;" edge="1" parent="1" source="54">
                    <mxGeometry width="50" height="50" relative="1" as="geometry">
                        <mxPoint x="306" y="227" as="sourcePoint"/>
                        <mxPoint x="21.200000000000045" y="222" as="targetPoint"/>
                    </mxGeometry>
                </mxCell>
                <mxCell id="61" value="contient" style="text;html=1;strokeColor=none;fillColor=none;align=center;verticalAlign=middle;whiteSpace=wrap;rounded=0;" vertex="1" parent="1">
                    <mxGeometry x="340" y="209" width="60" height="30" as="geometry"/>
                </mxCell>
                <mxCell id="62" value="" style="endArrow=none;html=1;exitX=0.5;exitY=1;exitDx=0;exitDy=0;entryX=0;entryY=0;entryDx=0;entryDy=0;" edge="1" parent="1" source="4" target="52">
                    <mxGeometry width="50" height="50" relative="1" as="geometry">
                        <mxPoint x="350" y="270" as="sourcePoint"/>
                        <mxPoint x="400" y="220" as="targetPoint"/>
                    </mxGeometry>
                </mxCell>
                <mxCell id="63" value="" style="endArrow=none;html=1;exitX=1;exitY=0.5;exitDx=0;exitDy=0;entryX=0.367;entryY=0.667;entryDx=0;entryDy=0;entryPerimeter=0;" edge="1" parent="1" source="52" target="42">
                    <mxGeometry width="50" height="50" relative="1" as="geometry">
                        <mxPoint x="350" y="400" as="sourcePoint"/>
                        <mxPoint x="400" y="350" as="targetPoint"/>
                    </mxGeometry>
                </mxCell>
                <mxCell id="64" value="filtre" style="text;html=1;strokeColor=none;fillColor=none;align=center;verticalAlign=middle;whiteSpace=wrap;rounded=0;" vertex="1" parent="1">
                    <mxGeometry x="50" y="346" width="60" height="30" as="geometry"/>
                </mxCell>
                <mxCell id="66" value="" style="endArrow=none;html=1;exitX=1;exitY=0.25;exitDx=0;exitDy=0;" edge="1" parent="1" source="11" target="53">
                    <mxGeometry width="50" height="50" relative="1" as="geometry">
                        <mxPoint x="460" y="190" as="sourcePoint"/>
                        <mxPoint x="600" y="100" as="targetPoint"/>
                    </mxGeometry>
                </mxCell>
                <mxCell id="67" value="contient/appartient" style="text;html=1;strokeColor=none;fillColor=none;align=center;verticalAlign=middle;whiteSpace=wrap;rounded=0;" vertex="1" parent="1">
                    <mxGeometry x="630" y="100" width="60" height="30" as="geometry"/>
                </mxCell>
                <mxCell id="68" value="" style="endArrow=none;html=1;entryX=1;entryY=1;entryDx=0;entryDy=0;exitX=0.25;exitY=1;exitDx=0;exitDy=0;" edge="1" parent="1" target="53">
                    <mxGeometry width="50" height="50" relative="1" as="geometry">
                        <mxPoint x="842" y="184" as="sourcePoint"/>
                        <mxPoint x="707.6999999999998" y="139.12000000000012" as="targetPoint"/>
                    </mxGeometry>
                </mxCell>
                <mxCell id="69" value="(1,n)" style="text;html=1;strokeColor=none;fillColor=none;align=center;verticalAlign=middle;whiteSpace=wrap;rounded=0;" vertex="1" parent="1">
                    <mxGeometry x="11" y="197" width="60" height="30" as="geometry"/>
                </mxCell>
                <mxCell id="71" value="(n,1)" style="text;html=1;strokeColor=none;fillColor=none;align=center;verticalAlign=middle;whiteSpace=wrap;rounded=0;" vertex="1" parent="1">
                    <mxGeometry x="786" y="195" width="60" height="30" as="geometry"/>
                </mxCell>
                <mxCell id="73" value="(n,n)" style="text;html=1;strokeColor=none;fillColor=none;align=center;verticalAlign=middle;whiteSpace=wrap;rounded=0;" vertex="1" parent="1">
                    <mxGeometry x="-52" y="286" width="60" height="30" as="geometry"/>
                </mxCell>
                <mxCell id="74" value="(n,n)" style="text;html=1;strokeColor=none;fillColor=none;align=center;verticalAlign=middle;whiteSpace=wrap;rounded=0;" vertex="1" parent="1">
                    <mxGeometry x="293" y="335" width="60" height="30" as="geometry"/>
                </mxCell>
                <mxCell id="76" value="(1,n)" style="text;html=1;strokeColor=none;fillColor=none;align=center;verticalAlign=middle;whiteSpace=wrap;rounded=0;" vertex="1" parent="1">
                    <mxGeometry x="450" y="40" width="60" height="30" as="geometry"/>
                </mxCell>
                <mxCell id="77" value="(n,1)" style="text;html=1;strokeColor=none;fillColor=none;align=center;verticalAlign=middle;whiteSpace=wrap;rounded=0;" vertex="1" parent="1">
                    <mxGeometry x="793" y="152" width="60" height="30" as="geometry"/>
                </mxCell>
            </root>
        </mxGraphModel>
    </diagram>
</mxfile>